<?xml version="1.0" standalone="no"?>
<!DOCTYPE svg PUBLIC "-//W3C//DTD SVG 20010904//EN"
 "http://www.w3.org/TR/2001/REC-SVG-20010904/DTD/svg10.dtd">
<svg version="1.0" xmlns="http://www.w3.org/2000/svg"
 width="1024.000000pt" height="1024.000000pt" viewBox="0 0 1024.000000 1024.000000"
 preserveAspectRatio="xMidYMid meet">
<metadata>
Created by potrace 1.11, written by Peter Selinger 2001-2013
</metadata>
<g transform="translate(0.000000,1024.000000) scale(0.100000,-0.100000)"
fill="#000000" stroke="none">
<path d="M4789 10146 c-2 -2 -42 -7 -89 -11 -117 -9 -281 -25 -300 -30 -12 -3
-99 -16 -140 -20 -46 -6 -79 -11 -115 -19 -11 -3 -65 -14 -120 -26 -131 -28
-116 -24 -230 -55 -55 -14 -116 -30 -135 -34 -48 -10 -365 -120 -398 -137 -15
-8 -30 -14 -34 -14 -4 0 -32 -11 -62 -25 -30 -14 -57 -25 -61 -25 -12 0 -342
-165 -413 -207 -41 -24 -75 -43 -78 -43 -18 0 -345 -217 -484 -322 -213 -160
-351 -280 -565 -493 -218 -218 -326 -341 -522 -600 -68 -89 -263 -377 -263
-389 0 -1 -25 -45 -55 -97 -30 -52 -91 -166 -134 -254 -161 -327 -249 -564
-347 -935 -8 -31 -74 -331 -78 -357 -3 -16 -8 -48 -11 -73 -3 -25 -7 -58 -10
-75 -2 -16 -8 -59 -14 -95 -5 -36 -13 -103 -16 -150 -3 -47 -8 -98 -11 -114
-18 -110 -18 -673 0 -851 3 -27 8 -81 11 -120 3 -38 8 -81 10 -95 2 -14 7 -47
10 -75 3 -27 7 -57 10 -65 2 -8 6 -39 9 -68 3 -29 20 -119 36 -200 17 -81 33
-157 36 -170 2 -12 16 -64 30 -115 14 -50 32 -117 40 -147 48 -180 168 -486
280 -715 68 -139 93 -185 169 -320 121 -215 334 -512 530 -740 187 -218 485
-511 652 -642 20 -15 43 -35 52 -44 9 -8 36 -31 61 -49 25 -19 50 -38 55 -43
106 -82 340 -244 370 -256 6 -2 23 -13 40 -25 32 -23 61 -41 84 -52 8 -4 56
-31 105 -59 222 -125 531 -263 776 -345 242 -81 613 -173 785 -195 28 -3 77
-10 110 -15 90 -14 142 -20 225 -26 41 -3 104 -9 140 -14 68 -8 790 -6 825 3
11 2 61 8 110 12 50 4 99 9 110 11 11 2 40 6 65 9 25 3 56 8 70 10 14 3 48 7
75 11 28 3 113 19 190 36 77 16 151 32 165 34 68 12 413 114 427 126 7 6 13 8
13 5 0 -15 339 123 520 211 108 53 384 204 468 257 132 82 343 232 350 248 2
4 8 7 13 7 10 0 0 -8 207 165 187 157 465 430 601 590 52 61 104 122 118 138
39 45 228 299 248 335 11 17 23 32 27 32 4 0 8 4 8 10 0 5 29 53 64 107 34 54
76 123 92 153 16 30 32 57 36 60 13 10 166 320 222 451 32 74 64 148 71 164
67 155 186 573 231 815 3 14 7 32 9 40 5 16 8 36 25 155 15 98 16 104 24 185
4 36 9 81 11 100 16 126 20 233 20 535 0 187 -4 378 -8 425 -12 129 -26 263
-31 285 -2 11 -7 46 -11 79 -3 32 -8 68 -10 80 -2 11 -6 37 -9 56 -23 155
-113 510 -181 715 -184 551 -516 1139 -891 1575 -227 264 -498 533 -722 714
-7 6 -21 18 -30 27 -80 73 -489 354 -622 426 -30 17 -77 43 -105 60 -71 42
-345 174 -440 213 -44 18 -99 40 -122 51 -194 86 -771 240 -993 265 -30 3 -57
7 -60 9 -3 2 -34 6 -70 10 -36 4 -72 8 -80 10 -8 2 -53 6 -100 10 -47 4 -98
10 -115 12 -36 6 -751 14 -756 9z m-1144 -3096 c166 -36 354 -188 432 -350 49
-100 65 -171 64 -283 0 -79 -2 -97 -18 -162 -4 -16 -7 -32 -8 -35 -1 -3 -9
-22 -18 -44 -9 -21 -17 -40 -17 -42 0 -9 -58 -93 -85 -123 -80 -90 -214 -190
-257 -191 -9 0 -19 -4 -22 -9 -3 -5 -23 -12 -43 -16 -21 -5 -47 -11 -58 -13
-29 -8 -213 -6 -260 3 -22 4 -83 28 -135 53 -173 84 -306 244 -353 426 -30
111 -17 282 29 396 57 145 198 288 347 354 116 51 271 65 402 36z m3272 -76
c68 -7 67 -7 158 -29 85 -19 180 -53 271 -96 38 -18 71 -33 74 -34 12 -3 104
-62 123 -78 12 -10 34 -26 49 -35 44 -26 202 -193 243 -257 74 -115 124 -261
125 -358 0 -151 -192 -285 -329 -230 -19 8 -81 62 -140 120 -125 125 -162 153
-256 197 -148 69 -269 95 -462 100 -262 7 -512 -66 -649 -189 -6 -5 -42 -38
-80 -72 -38 -34 -89 -80 -114 -103 -100 -90 -219 -84 -330 16 -60 54 -90 162
-68 239 5 17 11 39 13 50 18 81 99 234 162 306 67 76 245 229 267 229 2 0 33
17 67 38 258 157 567 222 876 186z m1018 -2515 c93 -24 175 -91 222 -183 28
-55 35 -126 21 -209 -5 -29 -11 -68 -13 -87 -3 -19 -7 -46 -10 -60 -3 -14 -7
-36 -10 -49 -2 -13 -14 -60 -26 -105 -11 -45 -23 -92 -25 -105 -3 -13 -14 -49
-25 -80 -11 -31 -22 -63 -24 -72 -24 -110 -183 -443 -288 -602 -65 -99 -186
-266 -214 -295 -10 -10 -33 -36 -52 -57 -72 -85 -221 -233 -307 -305 -16 -14
-56 -48 -89 -76 -33 -28 -112 -85 -175 -128 -63 -42 -120 -81 -127 -86 -7 -6
-14 -10 -17 -10 -2 0 -39 -20 -80 -45 -42 -25 -79 -45 -81 -45 -3 0 -46 -20
-97 -44 -105 -50 -258 -111 -333 -133 -82 -23 -199 -55 -220 -59 -86 -17 -186
-36 -215 -39 -19 -3 -51 -7 -70 -10 -65 -9 -135 -16 -205 -20 -78 -5 -611 -6
-690 -1 -78 5 -218 18 -240 22 -11 2 -39 6 -63 9 -23 2 -59 9 -80 14 -20 6
-55 13 -77 16 -73 11 -298 76 -405 117 -111 43 -301 129 -355 161 -11 7 -47
27 -80 46 -136 79 -382 260 -481 356 -11 11 -54 52 -95 91 -123 117 -295 322
-387 460 -103 156 -188 313 -260 484 -111 264 -210 664 -205 837 4 128 100
245 238 289 52 17 5576 20 5640 3z"/>
</g>
</svg>
